<?xml version="1.0" standalone="no"?>
<!DOCTYPE svg PUBLIC "-//W3C//DTD SVG 20010904//EN"
 "http://www.w3.org/TR/2001/REC-SVG-20010904/DTD/svg10.dtd">
<svg version="1.0" xmlns="http://www.w3.org/2000/svg"
 width="512.000000pt" height="512.000000pt" viewBox="0 0 512.000000 512.000000"
 preserveAspectRatio="xMidYMid meet">
<metadata>
Created by potrace 1.11, written by Peter Selinger 2001-2013
</metadata>
<g transform="translate(0.000000,512.000000) scale(0.100000,-0.100000)"
fill="#000000" stroke="none">
<path d="M2560 4081 l0 -561 80 0 80 0 0 474 0 474 28 -3 c114 -16 188 -29
260 -46 606 -146 1114 -593 1339 -1179 24 -63 71 -214 79 -255 2 -11 6 -31 9
-45 25 -118 29 -170 30 -375 0 -202 -5 -267 -31 -385 -8 -36 -17 -76 -20 -90
-3 -14 -23 -79 -45 -145 -47 -138 -122 -293 -203 -420 -286 -443 -757 -757
-1266 -845 -36 -6 -76 -14 -90 -17 -45 -10 -414 -12 -470 -3 -30 5 -71 12 -90
15 -34 5 -56 9 -110 21 -14 3 -35 7 -48 10 -12 2 -70 20 -129 40 -380 124
-723 376 -957 704 -162 227 -273 488 -327 775 -27 139 -34 455 -14 585 19 125
24 147 46 230 11 41 21 82 24 90 17 68 89 240 136 327 71 132 192 300 299 416
19 22 34 41 33 44 -1 2 -27 29 -57 59 l-55 55 -47 -48 c-155 -160 -318 -412
-409 -633 -49 -120 -102 -305 -130 -455 -13 -70 -20 -190 -20 -335 0 -138 11
-315 20 -330 2 -3 6 -25 10 -50 4 -24 18 -87 31 -139 165 -638 631 -1169 1241
-1412 112 -45 296 -98 388 -113 17 -2 66 -10 110 -17 124 -20 482 -17 591 5
12 2 38 7 59 10 155 25 370 96 537 178 400 196 721 508 932 908 108 205 180
429 217 672 14 94 20 401 8 498 -13 115 -25 192 -35 219 -2 8 -7 30 -10 50 -3
20 -26 98 -51 175 -206 621 -695 1112 -1314 1319 -93 31 -268 74 -334 82 -27
3 -61 8 -75 10 -14 3 -76 7 -137 11 l-113 6 0 -561z"/>
<path d="M1525 3574 c88 -152 810 -1145 874 -1201 71 -63 190 -80 270 -38 41
21 94 73 115 113 40 78 28 194 -29 268 -45 59 -1099 824 -1224 889 l-34 17 28
-48z"/>
</g>
</svg>
