<?xml version="1.0" standalone="no"?>
<!DOCTYPE svg PUBLIC "-//W3C//DTD SVG 20010904//EN"
 "http://www.w3.org/TR/2001/REC-SVG-20010904/DTD/svg10.dtd">
<svg version="1.0" xmlns="http://www.w3.org/2000/svg"
 width="512.000000pt" height="512.000000pt" viewBox="0 0 512.000000 512.000000"
 preserveAspectRatio="xMidYMid meet">
<metadata>
Created by potrace 1.11, written by Peter Selinger 2001-2013
</metadata>
<g transform="translate(0.000000,512.000000) scale(0.100000,-0.100000)"
fill="#000000" stroke="none">
<path d="M1280 4053 l0 -533 480 -480 480 -480 -480 -480 -480 -480 0 -533 0
-534 1280 0 1280 0 0 534 0 533 -480 480 -480 480 480 480 480 480 -2 533 -3
532 -1277 1 -1278 1 0 -534z m2131 95 c0 -7 1 -127 1 -266 l1 -254 -426 -426
-427 -427 -426 426 -427 427 -1 262 c0 144 1 264 3 266 2 2 386 4 853 4 671 0
848 -3 849 -12z m-422 -2232 l424 -424 1 -266 1 -266 -852 0 c-805 0 -853 1
-854 18 0 9 -1 129 -1 265 l-1 249 424 424 c233 233 426 424 429 424 3 0 196
-191 429 -424z"/>
</g>
</svg>
